<svg xmlns="http://www.w3.org/2000/svg" xmlns:xlink="http://www.w3.org/1999/xlink" width="24" height="24" viewBox="0 0 50 50"><defs><style>.a{fill:#000;}.b{clip-path:url(#a);}</style><clipPath id="a"><rect class="a" width="50" height="50" transform="translate(-0.13 -0.13)"/></clipPath></defs><g class="b" transform="translate(0.13 0.13)"><g transform="translate(0.043 0.034)"><path class="a" d="M44.464,33.045l2.9,1.682v8.319L40.2,47.2l-7.163-4.156V34.727L40.2,30.57l3,1.741.734-1.264L40.2,28.88l-7.893,4.58L25.143,29.3V20.144l-3.4-1.972-.734,1.264,2.67,1.55V29.3l-7.163,4.156L9.356,29.3V20.986l7.163-4.156L19.746,18.7l.734-1.264-3.231-1.875V6.4l-8.624-5L0,6.4V10.6H1.462V7.245L8.625,3.089l7.163,4.156v8.319L8.625,19.72,1.462,15.564V12.057H0v4.348l7.894,4.58V29.3L0,33.885v10L3.289,45.8l.734-1.264L1.462,43.046V34.727L8.625,30.57l7.163,4.156v8.319L8.625,47.2,5.287,45.265,4.554,46.53l4.071,2.362,7.893-4.58,3.2,1.856L20.45,44.9l-3.2-1.858V34.727l7.163-4.156,7.163,4.156v8.318L24.412,47.2l-2.7-1.565L20.981,46.9l3.431,1.991,7.894-4.58,7.893,4.58,8.625-5v-10l-3.626-2.1Zm0,0" transform="translate(0 0.924)"/><path class="a" d="M16,12.766a4.146,4.146,0,0,0,3.769-2.427l3.378.808a6.082,6.082,0,0,0,2.623,6.046l-1.161,1.567a4.154,4.154,0,1,0,1.274.737l1.209-1.633a6.087,6.087,0,0,0,7.23-8.952L35.67,7.676a4.158,4.158,0,1,0-1.1-.977L33.4,7.771a6.085,6.085,0,0,0-9.846,1.97l-3.425-.819c.007-.1.012-.2.012-.3A4.142,4.142,0,1,0,16,12.766Zm21.83-11.3a2.68,2.68,0,1,1-2.68,2.68,2.683,2.683,0,0,1,2.68-2.68Zm-11.938,21.2a2.68,2.68,0,1,1-2.68-2.68A2.683,2.683,0,0,1,25.888,22.658ZM29.153,7.5a4.629,4.629,0,1,1-4.629,4.629A4.634,4.634,0,0,1,29.153,7.5ZM16,5.944a2.68,2.68,0,1,1-2.68,2.68A2.683,2.683,0,0,1,16,5.944Zm0,0" transform="translate(7.83 0)"/><path class="a" d="M21.156,26.6l-.734-1.264-4.6,2.671-2.074-1.2L13.01,28.07,15.819,29.7Zm0,0" transform="translate(8.593 16.736)"/><path class="a" d="M11.487,26.6l.734-1.264,1.264.734-.734,1.264Zm0,0" transform="translate(7.587 16.737)"/><path class="a" d="M29.05,28.838V22.624L26.245,21l-.734,1.264,2.077,1.205v5.372Zm0,0" transform="translate(16.85 13.868)"/><path class="a" d="M23.988,21.379l.734-1.264,1.264.734-.734,1.264Zm0,0" transform="translate(15.844 13.286)"/><path class="a" d="M1.979,26.6l.734-1.264,2.441,1.416L4.42,28.02Zm0,0" transform="translate(1.307 16.737)"/><path class="a" d="M4.211,27.9l.734-1.264,1.264.734-.734,1.264Zm0,0" transform="translate(2.781 17.592)"/><path class="a" d="M1.761,8.288H3.223V9.75H1.761Zm0,0" transform="translate(1.163 5.474)"/><path class="a" d="M1.761,5.68H3.223V8.549H1.761Zm0,0" transform="translate(1.163 3.752)"/><path class="a" d="M9.727,13.1l.734-1.264,1.264.734-.734,1.264Zm0,0" transform="translate(6.425 7.819)"/><path class="a" d="M14.789,20.563V14.349l-2.806-1.628-.734,1.264,2.077,1.205v5.372Zm0,0" transform="translate(7.431 8.402)"/><path class="a" d="M23.978,8.567H25.44A3.171,3.171,0,0,0,22.273,5.4V6.861a1.708,1.708,0,0,1,1.705,1.706Zm0,0" transform="translate(14.711 3.566)"/></g></g></svg>