<svg xmlns="http://www.w3.org/2000/svg" xmlns:xlink="http://www.w3.org/1999/xlink" width="24" height="24" viewBox="0 0 24 24"><defs><style>.a{clip-path:url(#a);}</style><clipPath id="a"><rect width="24" height="24" transform="translate(137.948 1327.948)"/></clipPath></defs><g class="a" transform="translate(-137.948 -1327.948)"><g transform="translate(138.004 1328)"><path d="M21.328,16.578l1.39.807v3.99l-3.436,1.993-3.436-1.993v-3.99l3.436-1.994,1.439.835.352-.607-1.791-1.039-3.786,2.2L12.06,14.784V10.39l-1.63-.946-.352.607,1.281.743v3.99L7.923,16.778,4.488,14.784v-3.99L7.923,8.8l1.548.9.352-.607-1.55-.9V3.8L4.137,1.4,0,3.8V5.81H.7V4.2L4.137,2.209,7.573,4.2v3.99L4.137,10.187.7,8.193V6.511H0V8.6l3.786,2.2v3.99L0,16.981v4.8l1.578.915.352-.606L.7,21.375v-3.99l3.436-1.994,3.436,1.994v3.99L4.137,23.369l-1.6-.929-.352.607L4.137,24.18l3.786-2.2,1.534.89.352-.607-1.536-.891v-3.99l3.436-1.994,3.436,1.994v3.99L11.71,23.369l-1.294-.751-.352.607,1.646.955,3.786-2.2,3.786,2.2,4.137-2.4v-4.8L21.68,15.972Zm0,0" transform="translate(0 -0.285)"/><path d="M13.842,6.124A1.989,1.989,0,0,0,15.65,4.959l1.62.387a2.917,2.917,0,0,0,1.258,2.9L17.971,9a1.993,1.993,0,1,0,.611.353l.58-.783A2.92,2.92,0,0,0,22.63,4.274l.648-.592a1.994,1.994,0,1,0-.526-.469l-.563.514a2.919,2.919,0,0,0-4.723.945L15.823,4.28c0-.047.006-.095.006-.143a1.987,1.987,0,1,0-1.987,1.987ZM24.313.7a1.286,1.286,0,1,1-1.286,1.286A1.287,1.287,0,0,1,24.313.7ZM18.587,10.868A1.286,1.286,0,1,1,17.3,9.583,1.287,1.287,0,0,1,18.587,10.868ZM20.153,3.6a2.22,2.22,0,1,1-2.22,2.22A2.223,2.223,0,0,1,20.153,3.6Zm-6.311-.748a1.286,1.286,0,1,1-1.286,1.286A1.287,1.287,0,0,1,13.842,2.851Zm0,0" transform="translate(-2.413 0)"/><path d="M16.917,25.944l-.352-.607-2.208,1.281-1-.578-.352.607,1.347.782Zm0,0" transform="translate(-2.648 -5.156)"/><path d="M11.487,25.945l.352-.607.607.352-.352.606Zm0,0" transform="translate(-2.338 -5.156)"/><path d="M27.209,24.758V21.777L25.863,21l-.352.607,1,.578v2.577Zm0,0" transform="translate(-5.192 -4.273)"/><path d="M23.988,20.721l.352-.607.607.352-.352.606Zm0,0" transform="translate(-4.882 -4.093)"/><path d="M1.979,25.945l.352-.606,1.171.679-.352.607Zm0,0" transform="translate(-0.403 -5.156)"/><path d="M4.211,27.24l.352-.606.607.352-.352.607Zm0,0" transform="translate(-0.857 -5.42)"/><path d="M1.761,8.288h.7v.7h-.7Zm0,0" transform="translate(-0.358 -1.687)"/><path d="M1.761,5.68h.7V7.056h-.7Zm0,0" transform="translate(-0.358 -1.156)"/><path d="M9.727,12.445l.352-.607.607.352-.352.607Zm0,0" transform="translate(-1.979 -2.409)"/><path d="M12.947,16.482V13.5L11.6,12.721l-.352.607,1,.578v2.577Zm0,0" transform="translate(-2.289 -2.589)"/><path d="M23.091,6.919h.7A1.521,1.521,0,0,0,22.273,5.4v.7a.819.819,0,0,1,.818.818Zm0,0" transform="translate(-4.532 -1.099)"/></g></g></svg>