<svg xmlns="http://www.w3.org/2000/svg" xmlns:xlink="http://www.w3.org/1999/xlink" width="16" height="16" viewBox="0 0 16 16"><defs><style>.a{fill:#fff;}.b{clip-path:url(#a);}.c{fill:none;stroke:#ffa206;stroke-linecap:round;stroke-linejoin:round;stroke-width:1.5px;}</style><clipPath id="a"><rect class="a" width="16" height="16" transform="translate(5375 -284)"/></clipPath></defs><g class="b" transform="translate(-5375 284)"><path class="c" d="M16.821,13.074v2.189a1.459,1.459,0,0,1-1.59,1.459,14.439,14.439,0,0,1-6.3-2.24A14.227,14.227,0,0,1,4.557,10.1a14.439,14.439,0,0,1-2.24-6.326,1.459,1.459,0,0,1,1.452-1.59H5.958A1.459,1.459,0,0,1,7.417,3.444a9.368,9.368,0,0,0,.511,2.05A1.459,1.459,0,0,1,7.6,7.033l-.927.927a11.673,11.673,0,0,0,4.378,4.378l.927-.927a1.459,1.459,0,0,1,1.539-.328,9.368,9.368,0,0,0,2.05.511,1.459,1.459,0,0,1,1.255,1.481Z" transform="translate(5373.434 -285.459)"/></g></svg>